<?xml version="1.0" standalone="no"?>
<!DOCTYPE svg PUBLIC "-//W3C//DTD SVG 20010904//EN"
 "http://www.w3.org/TR/2001/REC-SVG-20010904/DTD/svg10.dtd">
<svg version="1.0" xmlns="http://www.w3.org/2000/svg"
 width="1024.000000pt" height="1024.000000pt" viewBox="0 0 1024.000000 1024.000000"
 preserveAspectRatio="xMidYMid meet">

<g transform="translate(0.000000,1024.000000) scale(0.100000,-0.100000)"
fill="#000000" stroke="none">
<path d="M3658 9021 c-25 -52 -23 -57 25 -75 80 -28 148 -40 157 -26 4 7 10 8
13 3 6 -10 -9 -59 -42 -137 -22 -50 -17 -76 15 -76 13 0 64 142 64 179 0 34
-72 82 -142 95 -29 5 -38 12 -38 27 0 11 4 17 10 14 6 -3 7 1 4 9 -7 19 -20
21 -30 4 -5 -8 -9 -7 -13 4 -4 11 -11 5 -23 -21z"/>
<path d="M3590 8930 c0 -24 -4 -25 -35 -4 -37 24 -80 11 -136 -41 -27 -25 -57
-45 -68 -45 -11 0 -35 -9 -53 -19 -18 -11 -79 -33 -135 -51 l-102 -32 -29 21
-29 20 -11 -24 c-7 -14 -27 -33 -46 -42 -35 -16 -35 -16 -103 24 -37 23 -71
39 -75 36 -5 -2 -8 -35 -8 -72 0 -76 6 -85 67 -106 29 -10 39 -20 45 -44 7
-23 16 -33 41 -39 24 -7 31 -14 29 -28 -14 -76 -14 -104 3 -110 10 -4 21 -1
25 7 10 15 12 14 28 -23 15 -35 24 -35 64 1 l33 30 -27 27 c-25 25 -28 26 -43
10 -9 -9 -21 -14 -26 -11 -15 10 -10 43 7 53 15 8 15 11 -1 35 -9 14 -16 28
-16 31 4 24 -2 28 -28 23 -33 -7 -50 8 -45 38 4 29 -14 45 -52 45 -21 0 -42 8
-54 20 -31 31 -15 41 38 24 76 -25 89 -27 111 -14 12 6 26 22 31 36 10 25 45
34 52 12 6 -18 81 -11 160 17 42 15 94 25 125 25 29 0 53 4 53 10 0 10 64 72
100 97 18 13 24 13 45 -1 35 -23 46 -20 94 21 40 34 42 38 25 50 -27 20 -54
16 -54 -7z"/>
<path d="M5756 8878 c13 -73 27 -117 61 -186 19 -41 37 -72 40 -69 2 3 -7 30
-21 60 -13 30 -36 93 -51 141 -27 88 -39 111 -29 54z"/>
<path d="M5660 8863 c-16 -48 -146 -302 -167 -326 -20 -21 -31 -14 -12 9 12
15 9 16 -41 8 -64 -10 -166 -10 -231 1 -33 5 -49 4 -54 -5 -5 -9 -2 -10 14 -5
17 5 21 2 21 -18 0 -53 51 -68 161 -47 35 7 56 7 63 0 18 -18 73 -11 103 14
18 15 55 80 98 170 38 80 73 146 77 146 9 0 78 -142 78 -160 0 -5 16 -27 35
-49 19 -21 42 -55 50 -75 8 -20 17 -36 20 -36 7 0 -21 70 -68 170 -24 52 -50
118 -56 145 -24 99 -69 127 -91 58z"/>
<path d="M3921 8868 c-37 -98 -44 -133 -48 -233 -5 -106 7 -195 26 -195 4 0 6
22 3 50 -2 27 -1 57 3 67 5 10 9 45 11 78 1 33 9 80 18 104 18 48 22 151 6
151 -6 0 -14 -10 -19 -22z"/>
<path d="M3813 8609 c-7 -13 -12 -58 -11 -99 l1 -75 69 -54 c37 -30 68 -58 68
-63 0 -4 12 -14 26 -20 l25 -12 -7 -150 c-3 -83 -7 -155 -8 -161 0 -5 5 -9 13
-7 7 2 21 -4 30 -12 9 -8 40 -24 69 -35 29 -12 71 -30 92 -41 38 -20 40 -23
40 -69 0 -66 15 -77 120 -85 101 -8 113 -14 226 -102 129 -102 140 -113 129
-121 -6 -5 -61 -101 -122 -214 -96 -178 -182 -320 -253 -418 -24 -31 -73 -212
-72 -261 1 -29 -1 -31 -8 -15 -6 14 -8 1 -5 -40 3 -43 2 -50 -3 -25 -7 32 -9
28 -15 -37 -6 -50 -13 -73 -23 -77 -9 -3 -100 -6 -202 -6 -103 0 -244 -3 -314
-7 -114 -5 -128 -8 -128 -24 0 -17 16 -18 313 -13 l312 5 33 25 c21 16 32 34
32 50 0 13 6 24 12 24 13 0 117 -105 278 -278 l85 -91 190 -17 c105 -9 211
-17 238 -17 26 -1 47 -4 47 -7 0 -4 73 -12 163 -19 149 -11 268 -23 617 -66
69 -8 144 -15 167 -15 38 0 66 -13 45 -22 -5 -1 -19 -30 -31 -63 -11 -33 -19
-47 -16 -31 17 85 11 80 -25 -24 -22 -63 -39 -122 -36 -130 3 -11 4 -11 5 3 0
9 6 17 11 17 6 0 10 -36 10 -87 0 -82 8 -134 25 -175 6 -14 2 -18 -17 -18 -36
0 -73 -46 -107 -134 -16 -43 -42 -91 -56 -106 -42 -44 -45 -178 -9 -450 l6
-45 -20 26 c-19 23 -21 42 -23 197 -2 95 -6 172 -11 172 -4 0 -5 -71 -2 -157
3 -117 2 -152 -6 -134 -6 14 -9 30 -6 38 3 7 1 15 -5 18 -5 4 -7 10 -4 15 3 4
-14 11 -37 15 -24 4 -46 13 -51 19 -5 8 -10 6 -17 -5 -9 -15 -16 -14 -77 7
-38 13 -78 23 -90 24 -13 0 -23 6 -23 14 0 9 -7 12 -20 9 -11 -3 -20 0 -20 6
0 6 -11 16 -25 21 -14 5 -25 14 -25 20 0 5 -10 10 -22 10 -19 0 -20 -2 -8 -11
11 -8 9 -8 -10 -3 -14 5 -38 9 -55 9 -16 1 -37 4 -45 8 -8 3 -31 10 -50 16
-25 6 -29 9 -12 10 39 2 23 21 -18 21 -29 0 -40 -4 -40 -15 0 -10 -9 -15 -27
-14 l-28 1 25 9 c21 7 20 8 -12 6 -21 -2 -38 0 -38 4 0 4 -18 10 -40 14 -22 4
-40 10 -40 15 0 4 -16 11 -35 14 -26 5 -40 3 -51 -9 -11 -11 -25 -14 -45 -10
-18 4 -29 2 -29 -4 0 -6 -18 -11 -40 -11 -38 0 -52 12 -30 25 6 3 10 13 10 21
0 8 -4 14 -10 14 -5 0 -10 -6 -10 -13 0 -20 -33 -47 -58 -47 -16 0 -22 -6 -22
-21 0 -16 -4 -19 -17 -15 -9 4 -25 -1 -37 -12 -28 -26 -113 -55 -155 -54 -24
1 -39 -5 -49 -19 -7 -10 -24 -19 -38 -19 -28 0 -31 -8 -6 -26 16 -13 16 -13
-2 -14 -10 0 -37 -6 -60 -12 l-41 -13 45 -6 45 -6 -44 -1 c-42 -2 -44 -3 -25
-18 18 -14 17 -15 -18 -9 -35 5 -61 -8 -36 -18 12 -5 -36 -11 -56 -8 -5 1 -13
-3 -17 -10 -4 -7 -35 -14 -73 -15 -52 -3 -66 0 -66 11 0 9 -6 12 -15 9 -11 -5
-15 1 -15 18 0 13 -9 56 -20 96 -11 39 -20 88 -20 107 0 42 -30 109 -65 147
-14 15 -25 29 -25 32 0 3 52 21 115 42 130 41 138 50 117 131 -15 53 -15 83
-2 83 22 0 8 38 -25 67 -19 17 -35 38 -35 47 0 9 14 44 30 78 30 62 30 63 12
88 -15 20 -38 29 -113 46 -169 39 -294 74 -307 88 -9 9 -11 28 -6 65 5 36 10
48 16 39 5 -8 8 1 6 27 -3 44 -20 57 -95 75 l-41 10 5 43 c2 23 9 61 15 84 13
52 5 89 -24 104 -29 16 -130 19 -125 5 2 -7 24 -10 52 -8 l48 4 -6 -121 c-6
-136 -8 -132 74 -160 51 -17 54 -20 57 -54 2 -20 -2 -45 -8 -54 -10 -16 -10
-15 -5 4 3 12 2 24 -3 27 -5 3 -12 -18 -16 -47 -8 -73 -8 -97 4 -97 6 0 10 7
10 15 0 13 4 13 26 -2 18 -11 22 -18 13 -21 -39 -10 -42 -13 -32 -23 7 -7 17
-7 31 2 16 10 46 6 183 -25 90 -21 172 -42 182 -47 21 -12 22 -28 2 -35 -8 -4
-15 -14 -15 -23 0 -9 -5 -22 -11 -28 -14 -14 -7 -78 9 -78 15 0 52 -77 52
-107 0 -11 -5 -28 -11 -40 -6 -11 -8 -35 -4 -54 4 -26 11 -34 27 -34 12 0 18
-3 14 -7 -4 -4 -42 -10 -85 -13 -58 -5 -86 -12 -109 -29 -18 -12 -37 -19 -44
-15 -7 4 -21 9 -32 10 -12 1 -39 7 -61 13 -23 6 -44 6 -50 1 -17 -14 -78 27
-71 47 5 11 2 14 -10 9 -8 -3 -32 -6 -51 -6 -31 0 -34 -2 -23 -15 19 -23 6
-28 -37 -14 -21 7 -49 13 -62 15 -22 2 -23 0 -18 -49 5 -61 -8 -117 -29 -117
-33 0 -85 30 -94 55 -5 14 -10 57 -11 96 -2 68 -3 72 -32 89 -17 11 -75 33
-129 51 -54 18 -98 36 -98 41 0 17 176 -33 238 -68 45 -25 62 -30 62 -16 0 12
-54 36 -176 77 -111 37 -154 64 -154 97 0 11 -4 17 -9 14 -5 -3 -18 10 -30 30
-26 43 -25 40 -1 47 38 10 20 77 -21 77 -9 0 -20 7 -23 16 -8 22 1 31 16 16 7
-7 17 -12 22 -12 6 0 0 7 -12 16 -20 14 -22 21 -18 99 3 65 1 87 -10 96 -12
10 -13 9 -8 -4 6 -17 -12 -57 -26 -57 -6 0 -10 14 -10 32 0 17 -7 40 -17 50
-11 12 -12 18 -4 18 7 0 11 5 9 11 -2 6 -7 10 -11 10 -4 -1 -20 5 -37 14 -16
8 -38 15 -49 15 -12 0 -26 9 -33 20 -17 27 -32 25 -61 -10 -14 -16 -33 -30
-42 -30 -9 0 -29 -9 -44 -19 -14 -10 -64 -37 -111 -60 -47 -22 -107 -56 -133
-76 -70 -50 -112 -58 -253 -52 -113 6 -130 4 -234 -23 -62 -15 -117 -27 -124
-24 -6 2 -21 19 -32 37 -21 31 -21 35 -9 149 7 65 17 123 21 130 4 7 -2 5 -14
-6 -12 -10 -20 -23 -19 -30 1 -6 -5 -9 -13 -7 -8 1 -56 2 -105 2 -136 -2 -235
40 -235 100 0 32 -3 34 -31 18 -24 -12 -59 -3 -59 16 0 18 25 26 60 18 31 -6
39 4 18 25 -7 7 -8 12 -2 12 17 0 33 -15 43 -43 12 -32 31 -27 31 7 0 37 -26
51 -87 49 -68 -3 -95 9 -87 41 3 15 -1 27 -12 37 -10 8 -15 9 -11 2 4 -6 3
-22 -2 -34 -8 -23 -8 -23 -24 8 -13 24 -22 30 -37 26 -12 -3 -20 0 -20 7 0 8
12 11 35 8 19 -2 35 -1 35 2 0 4 -17 25 -38 47 -29 32 -43 40 -62 36 -16 -3
-35 3 -52 16 -28 23 -59 99 -52 128 3 10 30 34 60 53 81 52 115 80 125 108 5
13 14 69 20 124 5 54 14 111 20 125 13 35 5 39 -15 8 -10 -15 -24 -77 -34
-151 l-17 -125 -45 -26 c-25 -15 -50 -32 -56 -38 -7 -6 -25 -23 -42 -36 -47
-40 -54 -60 -41 -121 13 -65 30 -93 68 -112 20 -11 32 -27 38 -53 6 -28 14
-39 31 -41 29 -4 52 -50 52 -105 0 -25 6 -49 13 -55 7 -6 37 -12 67 -14 l55
-3 6 -60 c7 -76 32 -125 62 -125 30 0 41 9 58 45 10 21 21 30 39 30 23 0 25
-4 30 -61 7 -83 18 -94 96 -94 l63 0 27 -56 c15 -31 35 -65 45 -75 24 -24 67
-24 99 1 14 10 58 27 99 37 66 15 74 16 85 2 6 -9 21 -21 34 -28 12 -6 30 -29
40 -49 17 -36 20 -37 97 -51 162 -28 219 -15 265 62 16 25 31 33 91 49 39 10
86 28 103 41 17 13 43 27 58 30 30 8 36 22 52 117 10 59 13 65 36 65 43 0 70
-55 70 -142 0 -44 6 -85 14 -101 8 -15 17 -46 21 -67 4 -22 15 -49 24 -60 9
-11 22 -30 29 -42 6 -13 18 -32 24 -43 10 -16 10 -24 0 -40 -6 -11 -12 -33
-12 -50 0 -39 25 -52 120 -60 41 -4 89 -13 105 -21 29 -13 30 -18 33 -84 2
-48 8 -75 20 -88 32 -36 98 -75 138 -83 21 -4 50 -15 64 -24 16 -12 49 -19 93
-21 75 -4 87 3 87 54 0 47 17 67 55 67 61 0 81 -16 91 -73 7 -40 15 -54 34
-64 41 -20 56 -129 52 -391 -3 -196 0 -212 45 -212 15 0 34 -12 49 -29 26 -32
88 -55 166 -65 54 -6 72 6 83 55 4 17 13 33 21 36 29 11 42 -17 49 -108 4 -50
10 -103 14 -118 8 -29 -13 -95 -40 -126 -23 -26 -26 -176 -8 -320 7 -55 12
-127 11 -160 0 -33 -1 -125 -1 -205 l0 -145 31 -32 c38 -39 97 -68 158 -78 25
-3 70 -13 100 -20 30 -8 72 -17 93 -20 21 -3 40 -11 42 -18 30 -101 33 -105
107 -127 62 -19 71 -25 84 -55 13 -33 23 -39 79 -47 17 -3 21 -13 25 -73 5
-69 5 -70 43 -88 21 -9 42 -28 48 -40 6 -12 27 -31 47 -42 45 -24 49 -41 23
-96 -12 -24 -21 -52 -21 -62 0 -11 -16 -35 -36 -54 -53 -50 -34 -52 28 -3 65
52 104 107 113 162 7 38 5 44 -24 70 -17 15 -28 28 -23 28 4 0 13 -5 20 -12 8
-8 15 -8 26 1 12 10 17 9 25 -8 31 -56 -11 -149 -121 -266 l-27 -30 24 -13
c22 -11 30 -9 76 23 62 43 92 57 200 97 76 28 98 32 220 35 134 4 137 4 155
-20 11 -13 33 -27 49 -31 36 -9 55 -24 55 -42 0 -19 -24 -17 -69 6 -41 20
-169 40 -263 40 -101 0 -261 -52 -322 -105 -16 -14 -35 -25 -43 -25 -8 0 -12
-4 -8 -9 13 -22 -21 -22 -62 0 l-44 24 -37 -41 c-70 -78 -125 -100 -193 -79
-14 5 -29 -12 -69 -75 -33 -51 -86 -112 -146 -168 -92 -87 -109 -107 -80 -96
8 3 41 -2 73 -11 99 -29 413 -156 431 -175 9 -10 53 -35 97 -56 44 -21 85 -42
90 -46 6 -5 43 -31 83 -59 55 -39 78 -62 97 -99 15 -29 22 -56 18 -67 -3 -10
-3 -15 1 -11 14 12 59 -39 59 -66 -1 -37 -7 -40 -37 -21 -17 11 -31 35 -41 66
-28 96 -68 130 -313 263 -242 132 -507 239 -623 253 -27 3 -52 9 -54 13 -3 5
40 40 95 79 95 68 148 123 234 246 22 30 17 27 -20 -15 -89 -99 -169 -174
-234 -222 -124 -90 -112 -70 -117 -196 -4 -96 -2 -113 12 -118 8 -4 22 -1 30
6 9 7 26 9 47 4 18 -4 57 -6 86 -5 69 3 96 -14 111 -73 10 -40 17 -49 59 -70
58 -29 132 -42 160 -27 11 6 23 26 26 46 19 100 119 18 133 -108 10 -96 91
-186 167 -187 10 0 50 -10 88 -22 l69 -23 -3 -50 c-1 -27 -1 -69 0 -91 2 -41
3 -42 51 -58 130 -42 175 -9 225 166 20 67 34 78 109 78 78 0 111 26 161 127
23 45 48 90 58 100 9 10 24 38 34 62 18 45 76 147 94 165 6 6 16 4 28 -7 16
-15 20 -15 40 -1 29 20 28 42 -3 56 -32 14 -32 33 1 54 25 17 64 81 64 106 0
31 71 157 114 203 25 28 49 60 52 73 9 33 28 21 32 -19 4 -42 14 -53 41 -44
17 5 21 14 21 51 0 24 -5 44 -11 44 -5 0 -8 4 -5 9 3 5 8 85 11 177 3 119 9
178 19 199 8 17 17 38 20 48 3 9 18 22 33 28 104 41 159 74 205 125 40 43 58
55 91 61 62 9 77 31 77 108 0 73 1 74 71 79 42 2 89 23 89 38 0 5 9 8 20 8 13
0 20 -7 20 -20 0 -11 9 -29 21 -41 25 -25 67 -20 139 16 45 23 126 36 315 51
44 3 84 10 89 15 6 5 9 31 7 59 -1 27 0 59 4 70 9 29 42 25 62 -7 10 -16 22
-31 28 -35 32 -24 147 12 159 49 4 10 25 39 49 65 48 52 109 78 187 78 43 0
49 -3 52 -22 2 -16 10 -23 26 -24 24 -1 30 11 10 19 -7 3 -3 6 10 6 12 1 22
-4 22 -10 0 -5 5 -7 10 -4 18 11 10 25 -15 25 -30 0 -33 15 -4 30 19 11 18 12
-17 31 -33 16 -39 17 -47 4 -5 -10 -20 -14 -43 -12 -30 2 -34 5 -30 23 4 14 0
24 -10 28 -26 10 -52 7 -57 -6 -4 -10 -8 -10 -23 0 -47 31 -65 36 -82 24 -30
-21 -43 -25 -53 -15 -15 15 19 45 41 38 10 -3 21 -1 25 5 4 7 13 7 27 -1 11
-6 53 -12 93 -13 57 -2 72 0 71 11 -4 22 -19 32 -61 35 -32 2 -40 7 -40 23 0
16 8 21 40 25 22 3 53 14 69 24 27 19 28 23 23 77 l-5 57 50 7 c34 5 56 15 73
33 13 14 22 29 20 33 -3 4 2 29 10 55 8 27 15 60 15 74 0 14 11 47 25 74 14
27 25 66 25 86 0 45 51 203 73 228 8 9 19 30 23 45 3 16 17 50 29 75 39 81 37
248 -4 318 -25 42 -35 124 -22 182 5 26 12 106 13 177 4 152 18 192 102 286
28 31 59 65 68 77 10 12 27 22 38 22 34 0 97 46 104 77 4 15 18 44 30 63 29
44 34 61 41 128 l5 54 -104 -97 c-83 -77 -112 -111 -142 -168 -21 -40 -56 -90
-79 -113 -23 -22 -57 -70 -75 -107 l-32 -66 7 -118 c6 -103 4 -128 -15 -201
-24 -92 -26 -81 41 -198 23 -41 23 -44 11 -137 -12 -99 -31 -156 -102 -317
-23 -52 -46 -122 -51 -156 -10 -71 -17 -94 -31 -94 -23 0 30 226 84 355 91
215 97 269 42 361 -46 76 -50 107 -29 195 14 58 16 93 11 184 -6 107 -5 116
18 166 45 97 72 134 114 157 34 19 42 29 42 53 0 16 -4 29 -9 29 -12 0 -46
-53 -43 -67 2 -7 -5 -13 -15 -13 -19 -1 -58 -26 -58 -38 -1 -4 -23 -51 -49
-104 l-49 -96 13 -79 c12 -71 11 -87 -10 -190 l-23 -113 23 -62 c12 -35 27
-72 33 -83 16 -30 20 -131 7 -189 -7 -28 -30 -89 -52 -136 -22 -47 -50 -125
-63 -175 -69 -264 -86 -322 -105 -347 l-20 -27 27 -13 c15 -7 28 -17 30 -23 3
-12 -83 -12 -108 -1 -22 10 -34 -11 -19 -29 10 -12 9 -15 -9 -15 -13 0 -23 -8
-27 -24 -6 -25 -41 -46 -76 -46 -12 0 -18 -3 -14 -7 4 -4 22 -6 41 -4 18 1 44
-3 56 -9 19 -11 21 -10 16 4 -8 20 3 21 29 1 17 -13 17 -14 2 -15 -10 0 -18
-6 -18 -14 0 -18 -23 -27 -41 -15 -8 5 -29 9 -47 9 -20 0 -35 6 -38 15 -4 8
-12 15 -20 15 -21 0 -93 -53 -100 -73 -8 -24 -67 -52 -91 -42 -15 6 -10 14 37
53 131 112 147 140 118 209 -15 37 -19 75 -7 68 5 -4 9 -1 9 4 0 6 -5 11 -11
11 -6 0 -9 7 -5 15 3 9 0 15 -9 15 -8 0 -15 7 -15 15 0 8 -6 12 -14 9 -7 -3
-16 2 -19 10 -4 9 -16 16 -27 16 -15 0 -20 7 -20 26 0 21 -3 24 -13 15 -18
-14 -52 21 -44 44 6 14 -8 20 -41 16 -7 -1 -12 5 -10 14 2 9 -10 23 -27 33
-16 9 -31 20 -33 25 -2 4 -10 7 -18 7 -8 0 -17 7 -20 15 -4 8 -14 15 -24 15
-11 0 -22 5 -26 12 -4 7 -3 8 4 4 7 -4 12 -2 12 3 0 6 -21 12 -47 12 -41 1
-44 2 -18 8 l30 7 -28 18 c-23 16 -30 16 -44 5 -15 -12 -16 -12 -10 4 12 32
-51 75 -68 47 -13 -21 -32 -10 -31 18 1 20 -4 27 -16 26 -10 -1 -18 4 -18 11
0 19 -32 43 -37 28 -8 -22 -24 -14 -21 9 2 17 -4 23 -32 31 -44 11 -62 27 -31
27 43 0 15 24 -43 37 -31 7 -62 12 -69 10 -6 -1 -13 8 -15 21 -2 14 -10 22
-23 22 -10 0 -19 7 -19 15 0 13 -12 19 -32 16 -4 0 -10 10 -14 24 -4 16 -13
25 -25 25 -10 0 -19 5 -19 10 0 6 -6 10 -13 10 -18 0 -21 -25 -14 -107 2 -29
2 -52 -2 -51 -3 1 -25 -17 -48 -39 l-42 -41 -4 -149 c-3 -81 -6 -154 -8 -162
-1 -7 -20 -25 -42 -40 -57 -37 -137 -112 -137 -126 0 -16 -44 -45 -67 -45 -10
0 -23 8 -30 19 -11 17 -9 18 31 14 41 -5 42 -4 60 36 23 49 40 65 114 107 55
32 56 33 29 39 -31 8 -30 0 -31 175 -1 74 -5 147 -10 162 -11 37 16 39 32 3
14 -31 15 -46 2 -25 -7 10 -10 -27 -10 -114 0 -71 3 -127 6 -124 3 3 9 28 14
55 l9 48 -4 -54 c-2 -29 -9 -59 -16 -67 -12 -15 -6 -30 21 -44 17 -9 18 -2 19
149 1 101 -2 162 -9 166 -18 11 -11 25 13 25 12 0 37 9 55 20 33 20 39 40 34
112 -1 15 2 30 8 33 5 3 7 12 3 20 -3 8 0 15 6 15 6 0 8 7 4 16 -5 13 -7 13
-14 2 -7 -10 -9 -10 -9 0 0 6 -8 12 -19 12 -10 0 -33 12 -50 28 -30 26 -32 31
-34 106 -2 91 -3 91 104 125 114 36 129 42 130 60 0 12 2 11 8 -4 5 -11 7 -21
6 -23 -2 -2 -50 -17 -107 -33 -56 -17 -107 -35 -113 -41 -7 -7 -4 -9 10 -5 11
3 40 9 65 12 55 9 145 41 158 58 6 7 7 32 2 62 -4 28 -6 52 -4 54 2 2 18 -3
36 -12 50 -23 124 -30 178 -17 55 13 84 4 93 -30 3 -11 1 -18 -4 -14 -5 3 -9
0 -9 -6 0 -7 27 -9 88 -4 l87 7 50 -48 c72 -68 97 -79 135 -60 47 24 72 19
115 -26 55 -56 88 -71 154 -70 70 1 116 -11 116 -30 1 -25 25 -59 41 -59 10 0
14 6 11 14 -3 7 -1 18 5 24 8 8 8 15 -1 26 -9 11 -9 15 1 18 9 3 9 11 -2 37
-12 30 -16 32 -44 26 -47 -11 -188 -6 -213 7 -27 13 -31 30 -5 21 9 -4 -3 10
-27 30 -60 52 -84 55 -191 32 -20 -4 -34 3 -68 35 -46 43 -122 87 -122 70 0
-20 -79 -11 -101 11 -12 12 -33 25 -48 30 l-26 9 28 -4 c16 -2 25 0 20 4 -10
10 -36 13 -88 10 -36 -2 -38 -3 -15 -11 16 -5 -6 -7 -64 -4 -49 2 -92 8 -96
12 -4 4 -13 25 -20 46 -6 21 -18 37 -27 37 -11 0 -14 8 -9 38 8 54 9 172 1
208 -5 22 -1 44 10 67 15 33 15 38 1 59 -9 12 -16 26 -16 30 0 8 82 48 98 48
13 0 42 45 42 64 0 9 -10 20 -21 27 -19 10 -21 18 -17 70 6 83 17 91 130 99
51 3 103 12 114 20 25 15 68 86 110 178 l29 63 38 -5 c40 -7 122 14 209 53
l47 22 42 -27 c23 -14 59 -29 79 -31 34 -5 43 0 106 57 38 34 74 75 81 90 25
57 113 44 113 -17 0 -36 13 -27 34 23 13 33 16 48 8 56 -8 8 -15 8 -26 -1 -27
-22 -36 -2 -35 77 1 80 -11 134 -34 161 -26 29 -85 240 -116 411 -13 73 -16
287 -4 325 9 29 11 30 79 33 78 3 132 -8 213 -44 80 -36 141 -68 141 -74 0 -3
27 -34 60 -70 33 -36 60 -68 60 -72 0 -5 6 -8 14 -8 8 0 21 -6 28 -12 7 -7 26
-20 43 -28 57 -29 135 -93 141 -117 4 -13 14 -23 23 -23 10 0 37 -10 62 -22
36 -19 63 -23 147 -24 57 -1 116 -7 132 -14 32 -13 70 -89 70 -139 0 -23 4
-29 15 -25 8 4 15 1 15 -5 0 -6 -6 -11 -14 -11 -21 0 -96 -42 -96 -54 -1 -6
-16 -18 -34 -27 -28 -13 -37 -13 -52 -2 -24 17 -40 16 -64 -4 -11 -10 -24 -19
-28 -19 -28 -6 -52 -18 -57 -31 -4 -13 1 -15 30 -10 19 3 35 2 35 -2 0 -13
-69 -41 -75 -31 -8 13 -55 2 -78 -19 -13 -11 -17 -24 -13 -42 7 -35 -12 -43
-61 -23 -69 27 -103 48 -109 66 -3 10 -12 18 -20 18 -11 0 -13 -6 -8 -22 4
-13 13 -43 19 -68 l12 -45 49 0 49 0 -3 -37 c-4 -42 11 -50 29 -16 l12 22 21
-26 c26 -31 112 -58 188 -58 77 0 100 8 96 34 -3 19 -10 21 -63 21 -97 1 -188
23 -198 49 -3 6 5 32 16 56 22 46 49 76 55 59 7 -18 42 -9 74 19 62 54 81 62
136 62 44 0 53 3 48 15 -4 10 1 15 16 15 11 0 36 9 54 21 l34 21 0 -30 c0 -60
-20 -135 -45 -163 -13 -16 -27 -46 -31 -67 -7 -38 -42 -112 -54 -112 -4 0 -25
-26 -49 -58 -34 -48 -56 -66 -122 -100 -43 -24 -100 -56 -126 -72 -68 -43
-174 -37 -236 13 -24 19 -26 26 -18 54 7 26 7 31 -5 26 -10 -4 -14 3 -14 21 0
29 14 34 28 10 7 -13 10 -13 20 -1 9 11 8 18 -8 32 -28 26 -25 35 10 29 22 -5
31 -2 36 10 9 23 1 28 -29 17 -31 -12 -43 -3 -19 15 16 12 16 13 0 14 -9 0
-20 5 -24 12 -5 8 -2 9 10 5 12 -5 16 -3 14 5 -8 22 -78 22 -102 0 -29 -27
-81 -52 -106 -52 -12 0 -35 15 -51 33 -23 25 -31 29 -38 18 -6 -9 -18 -11 -34
-7 -29 7 -50 -12 -37 -34 4 -7 4 -24 -1 -37 -12 -32 -13 -30 21 -37 17 -3 44
-9 61 -12 25 -5 31 -3 35 14 5 17 16 20 70 24 52 3 67 8 80 26 18 26 24 27 48
9 17 -12 17 -16 -3 -72 -29 -83 -27 -108 12 -141 83 -70 211 -90 296 -45 29
15 40 26 32 31 -10 5 -8 9 4 13 9 4 13 3 10 -3 -11 -19 6 -10 52 25 25 19 49
33 53 30 25 -16 234 295 255 378 10 40 27 21 19 -21 -7 -40 -50 -131 -92 -196
-58 -89 -148 -214 -190 -264 -24 -29 -42 -56 -39 -59 3 -3 22 -2 42 1 30 6 45
19 91 82 30 40 59 74 64 74 5 0 10 -15 12 -32 2 -28 7 -33 28 -33 20 0 26 6
31 35 7 44 33 105 48 114 18 12 12 43 -9 49 -31 8 -37 37 -12 56 12 9 30 36
41 61 23 55 55 288 47 347 -7 53 -38 151 -61 189 -9 16 -13 20 -10 9 40 -125
55 -238 37 -270 -6 -12 -11 8 -15 67 -8 121 -48 238 -93 278 l-37 32 -91 -7
c-85 -6 -94 -5 -136 19 -72 40 -277 209 -371 305 -79 80 -93 90 -160 113 -41
14 -105 37 -142 52 -82 31 -120 32 -212 6 -128 -37 -217 -26 -324 42 -25 15
-53 28 -62 28 -10 0 -19 5 -21 12 -3 9 -19 8 -65 -1 -33 -7 -100 -12 -150 -10
-90 4 -91 4 -132 44 -23 22 -50 56 -59 76 -9 20 -45 61 -79 90 -35 30 -63 62
-63 71 0 18 -18 34 -27 24 -3 -3 0 -12 7 -21 17 -20 8 -19 -35 5 -40 23 -49
25 -40 9 4 -6 1 -9 -6 -8 -23 4 -89 -13 -89 -22 0 -17 -45 -9 -94 16 -27 14
-64 25 -83 25 -24 0 -44 10 -73 36 -68 61 -211 87 -238 43 -10 -15 -10 -24 -2
-34 15 -18 112 -38 160 -32 25 3 37 0 34 -7 -2 -6 0 -24 4 -40 7 -24 14 -29
42 -31 19 -1 48 -9 64 -18 16 -8 34 -13 41 -10 8 2 25 -3 39 -12 16 -11 35
-15 50 -11 13 3 38 1 55 -5 23 -8 35 -8 45 0 7 6 34 13 59 15 26 3 51 8 57 11
5 3 10 1 10 -4 0 -6 -6 -11 -12 -11 -9 0 -8 -3 2 -10 12 -7 12 -12 2 -22 -6
-6 -12 -26 -12 -42 0 -23 3 -27 12 -18 18 18 46 15 44 -5 0 -11 5 -17 13 -15
9 2 11 -3 7 -13 -3 -9 -6 -20 -6 -25 0 -4 -8 -6 -19 -3 -10 3 -22 0 -26 -7
-10 -17 13 -39 36 -33 19 5 52 -24 43 -38 -2 -4 5 -9 16 -12 11 -3 20 -2 21 1
0 4 2 19 4 34 2 15 -3 32 -11 39 -8 6 -14 15 -14 20 0 18 27 9 48 -16 12 -14
26 -25 32 -25 5 0 10 -8 10 -19 0 -10 9 -30 20 -43 10 -14 16 -29 12 -33 -4
-5 -2 -5 4 -2 7 4 14 1 17 -7 4 -10 17 -13 47 -10 28 4 50 0 66 -11 14 -9 33
-13 44 -10 24 8 27 -13 5 -29 -10 -7 -12 -16 -6 -25 8 -12 12 -12 25 -2 9 8
16 9 16 3 0 -6 14 -13 30 -17 34 -7 34 -9 20 -35 -9 -17 -6 -20 17 -26 16 -4
33 -10 38 -15 6 -4 22 1 35 11 14 11 19 20 11 20 -8 0 -11 6 -7 17 4 9 2 20
-4 23 -8 5 -6 9 5 13 10 4 14 3 9 -4 -4 -7 1 -10 12 -7 11 2 20 13 22 26 3 16
0 20 -12 16 -9 -4 -16 -1 -16 6 0 13 64 9 150 -10 25 -5 62 -9 83 -10 20 0 37
-4 37 -10 0 -15 26 -12 40 5 24 29 30 14 9 -26 -19 -38 -20 -53 -16 -187 7
-203 12 -241 37 -300 12 -28 19 -55 16 -61 -4 -5 3 -33 14 -61 11 -29 20 -57
19 -63 -2 -20 1 -31 17 -52 13 -17 16 -18 25 -5 9 13 10 13 6 -1 -3 -9 3 -29
14 -45 11 -16 19 -47 19 -70 0 -35 -7 -48 -52 -97 -29 -31 -73 -80 -98 -108
-25 -28 -55 -58 -68 -67 -21 -14 -26 -13 -61 6 -21 12 -49 22 -62 22 -18 0
-21 3 -10 9 20 13 52 139 45 176 -7 33 -47 116 -75 156 -24 34 -26 61 -16 180
7 77 5 107 -8 160 -11 40 -15 81 -11 108 3 24 1 72 -4 108 -9 55 -8 73 10 130
14 45 17 70 10 77 -17 17 -31 -7 -49 -86 -14 -62 -16 -94 -8 -213 5 -77 10
-207 11 -290 l1 -150 38 -67 c20 -36 37 -74 37 -83 0 -9 4 -14 9 -11 10 7 21
-28 20 -64 l-1 -25 -8 25 c-6 19 -8 11 -9 -32 -1 -48 -5 -60 -23 -72 -32 -20
-160 -62 -238 -77 -91 -18 -109 -37 -166 -178 -24 -58 -47 -71 -140 -77 -91
-7 -150 -37 -160 -82 -20 -87 -20 -87 -48 -90 -37 -5 -61 19 -97 93 -16 33
-41 70 -55 81 -25 20 -26 24 -14 58 6 20 18 36 25 36 23 0 28 20 11 39 -9 10
-16 25 -16 33 0 20 32 78 43 78 13 0 7 47 -8 60 -8 7 -16 9 -16 4 -1 -5 -4 4
-8 21 -5 24 -13 30 -46 37 -63 13 -126 40 -122 52 3 6 0 19 -5 30 -11 20 8 70
23 61 9 -6 26 46 32 103 4 29 1 47 -10 57 -19 20 -47 20 -39 0 12 -32 -30 4
-69 59 -22 30 -48 58 -57 61 -25 9 -23 17 26 87 32 47 56 102 94 218 111 337
164 562 139 587 -4 3 -8 4 -10 2 -6 -7 -75 -239 -111 -369 -68 -249 -111 -365
-160 -435 -12 -16 -22 -32 -23 -34 -1 -2 -9 2 -17 8 -9 8 -27 10 -46 6 -23 -5
-30 -12 -30 -31 0 -20 4 -23 23 -19 16 4 29 -1 47 -21 l25 -26 -22 -15 c-13
-9 -23 -20 -23 -25 0 -5 13 0 29 11 27 20 61 20 61 0 0 -4 12 -29 27 -54 19
-30 38 -49 60 -56 42 -14 43 -39 3 -98 -22 -32 -28 -50 -23 -65 4 -12 7 -40 6
-63 -1 -24 2 -43 7 -43 6 0 10 5 10 10 0 17 26 11 45 -9 9 -11 41 -30 71 -42
62 -26 73 -47 46 -86 -13 -18 -22 -52 -26 -95 -3 -36 -12 -83 -20 -103 -18
-43 -14 -55 18 -55 28 0 59 -32 51 -53 -4 -8 3 -34 15 -57 18 -34 32 -46 86
-70 36 -17 72 -37 82 -46 15 -15 14 -19 -19 -46 -90 -76 -88 -74 -81 -99 6
-23 6 -23 13 6 10 46 15 -5 9 -100 l-3 -50 -7 60 -7 60 -1 -77 c-1 -42 3 -89
9 -105 l12 -28 8 25 c7 21 8 19 4 -9 -7 -45 -10 -48 -48 -31 -54 23 -98 16
-131 -22 -18 -19 -31 -27 -34 -20 -2 7 -9 12 -17 12 -21 0 -38 27 -24 36 17
10 -15 22 -62 23 -25 1 -39 -4 -43 -15 -5 -13 -17 -15 -68 -11 -34 3 -64 10
-66 16 -2 7 -15 25 -28 40 -13 16 -24 34 -24 40 0 16 -36 13 -54 -4 -9 -10
-34 -15 -71 -15 -35 0 -54 -4 -50 -10 3 -5 1 -10 -5 -10 -6 0 -10 6 -9 13 6
45 -3 67 -31 82 -40 21 -109 20 -126 -2 -7 -10 -16 -14 -21 -10 -4 5 -9 70
-11 145 -3 134 -2 139 29 222 39 105 48 160 25 160 -19 0 -22 20 -3 21 13 0
37 29 190 227 101 131 170 252 160 278 -5 13 -8 13 -24 -2 -11 -9 -19 -21 -19
-26 0 -5 -7 -16 -15 -24 -18 -18 -20 -38 -3 -28 7 4 8 3 4 -5 -4 -6 -11 -9
-16 -6 -5 3 -43 -41 -86 -97 -43 -57 -90 -119 -105 -138 -14 -19 -51 -69 -82
-111 l-55 -77 -49 9 c-44 9 -236 32 -358 45 -27 2 -86 9 -130 14 -44 5 -134
14 -200 20 -66 5 -154 15 -195 20 -41 5 -140 15 -220 21 -80 6 -170 14 -200
18 l-55 6 -150 160 c-82 88 -164 171 -182 184 -18 13 -33 30 -33 37 0 7 14 68
31 136 32 122 33 125 141 288 105 158 278 482 278 521 0 10 5 21 12 25 7 5 8
3 3 -7 -5 -8 1 -5 13 5 12 11 21 20 20 22 -2 1 -34 23 -73 49 -77 52 -145 113
-142 127 5 23 -52 48 -133 58 -165 20 -150 12 -150 80 0 71 3 68 -130 113
l-95 33 3 134 c3 148 9 164 63 172 16 3 38 -1 48 -8 16 -12 22 -10 45 11 29
27 55 32 73 14 14 -14 33 -4 33 17 0 21 43 84 57 84 36 0 166 -35 170 -47 8
-21 44 -15 50 8 3 12 11 18 19 15 9 -3 14 2 14 14 0 12 5 17 13 14 24 -9 50
34 55 91 5 67 20 74 85 40 27 -14 53 -25 59 -25 5 0 21 -9 35 -20 19 -15 42
-20 92 -21 132 -2 141 -3 141 -21 0 -9 12 -31 27 -49 l27 -32 8 32 c10 38 20
39 38 6 7 -14 16 -25 20 -25 4 0 5 -11 3 -24 -5 -26 27 -56 59 -56 10 0 23 -9
30 -20 7 -11 20 -20 28 -21 10 0 11 -2 3 -6 -9 -3 -6 -11 8 -26 12 -12 26 -34
31 -49 6 -16 15 -25 23 -22 7 3 21 -8 31 -25 14 -23 23 -29 40 -25 19 5 21 2
17 -20 -5 -26 1 -30 40 -27 9 1 20 -4 23 -13 3 -8 12 -12 20 -9 8 3 14 -1 14
-11 0 -9 7 -16 16 -16 12 0 9 9 -13 38 -17 20 -33 45 -36 55 -4 9 -13 17 -20
17 -49 0 -117 63 -126 117 -5 31 -14 42 -57 67 -76 46 -124 88 -124 107 0 22
-78 101 -94 96 -6 -2 -37 7 -68 20 -42 17 -63 20 -81 14 -14 -5 -30 -5 -40 1
-9 5 -22 6 -27 3 -5 -3 -29 5 -53 19 -44 26 -95 32 -161 17 -23 -5 -29 -12
-32 -35 -2 -16 -5 -35 -8 -42 -7 -19 -26 -18 -26 2 0 9 -6 14 -12 11 -7 -2
-11 -13 -9 -23 8 -43 5 -48 -38 -61 -37 -11 -56 -10 -118 3 -40 8 -78 12 -83
9 -6 -3 -10 -2 -10 4 0 18 -25 1 -42 -29 -26 -46 -74 -70 -138 -70 -35 0 -66
-7 -85 -18 -36 -22 -61 -17 -155 30 -82 42 -110 80 -111 157 -1 31 -4 67 -8
80 l-6 23 -12 -23z m199 -494 c-2 -71 -6 -132 -8 -134 -2 -2 -4 67 -3 155 1
87 4 148 8 134 4 -14 5 -83 3 -155z m1368 125 c0 -5 -2 -10 -4 -10 -3 0 -8 5
-11 10 -3 6 -1 10 4 10 6 0 11 -4 11 -10z m-1130 -459 c0 -9 6 -23 13 -30 10
-11 9 -13 -3 -9 -8 2 -17 19 -21 36 -3 17 -2 29 2 26 5 -3 9 -13 9 -23z m2946
-114 c2 -15 0 -27 -6 -27 -5 0 -10 6 -10 13 0 6 -3 23 -6 37 -5 19 -4 22 5 14
6 -6 14 -23 17 -37z m431 -142 c0 -8 -4 -12 -9 -9 -4 3 -8 9 -8 15 0 5 4 9 8
9 5 0 9 -7 9 -15z m-27 -25 c0 -5 -8 -10 -17 -10 -15 0 -16 2 -3 10 19 12 20
12 20 0z m-95 -35 c-17 -13 -34 -24 -40 -24 -5 0 1 8 14 17 14 9 30 22 35 28
6 7 13 10 16 8 2 -3 -9 -16 -25 -29z m19 -30 c-4 -8 -11 -12 -17 -8 -8 5 -7 8
1 11 7 2 9 9 6 14 -4 7 -2 8 4 4 6 -4 9 -13 6 -21z m106 -108 c0 -8 -7 -14
-15 -14 -16 0 -19 9 -8 20 11 11 23 8 23 -6z m77 -474 c-3 -10 -5 -4 -5 12 0
17 2 24 5 18 2 -7 2 -21 0 -30z m1316 -270 c-7 -2 -21 -2 -30 0 -10 3 -4 5 12
5 17 0 24 -2 18 -5z m-4566 -276 c143 -162 182 -209 88 -108 -38 42 -115 123
-170 180 -55 57 -85 94 -68 82 18 -12 86 -82 150 -154z m4289 119 c10 -8 16
-17 12 -21 -8 -8 -48 13 -48 25 0 14 13 12 36 -4z m-5088 -43 c-16 -2 -40 -2
-55 0 -16 2 -3 4 27 4 30 0 43 -2 28 -4z m-2573 -21 c-3 -3 -11 0 -18 7 -9 10
-8 11 6 5 10 -3 15 -9 12 -12z m7471 -79 c-6 -6 -36 9 -36 18 0 5 9 4 20 -3
10 -7 18 -14 16 -15z m-236 -65 c0 -13 -44 -9 -65 5 -10 8 -15 19 -11 25 7 12
76 -15 76 -30z m-1489 -91 c-13 -13 -14 5 -3 43 l7 25 3 -29 c2 -16 -1 -33 -7
-39z m-1798 -24 c-18 -2 -48 -2 -65 0 -18 2 -4 4 32 4 36 0 50 -2 33 -4z m80
-10 c-7 -2 -21 -2 -30 0 -10 3 -4 5 12 5 17 0 24 -2 18 -5z m295 -30 c-10 -2
-28 -2 -40 0 -13 2 -5 4 17 4 22 1 32 -1 23 -4z m-3828 -43 c0 -5 -4 -10 -9
-10 -5 0 -16 -3 -24 -6 -8 -3 -17 2 -20 10 -5 12 1 16 23 16 17 0 30 -4 30
-10z m5303 -181 c16 -30 20 -45 11 -38 -13 10 -44 71 -44 85 0 14 12 -3 33
-47z m-3296 9 c-3 -7 -5 -2 -5 12 0 14 2 19 5 13 2 -7 2 -19 0 -25z m-713 -39
c7 -46 4 -54 -19 -46 -15 6 -22 67 -8 80 14 14 21 6 27 -34z m-604 1 c0 -5 -5
-10 -11 -10 -5 0 -7 5 -4 10 3 6 8 10 11 10 2 0 4 -4 4 -10z m24 -41 c15 -75
-4 -137 -38 -126 -15 5 -21 127 -6 127 6 0 9 4 6 9 -5 8 7 18 25 20 4 1 9 -13
13 -30z m1399 24 c-7 -2 -19 -2 -25 0 -7 3 -2 5 12 5 14 0 19 -2 13 -5z m64
-9 c-3 -3 -12 -4 -19 -1 -8 3 -5 6 6 6 11 1 17 -2 13 -5z m3278 -24 c3 -5 -1
-10 -9 -10 -9 0 -16 5 -16 10 0 6 4 10 9 10 6 0 13 -4 16 -10z m45 -25 c0 -9
-6 -12 -15 -9 -8 4 -15 10 -15 15 0 5 7 9 15 9 8 0 15 -7 15 -15z m-4210 -16
c0 -11 -4 -18 -10 -14 -5 3 -7 12 -3 20 7 21 13 19 13 -6z m1131 -105 c-11
-27 -20 -41 -20 -31 -1 21 29 90 36 84 2 -3 -5 -26 -16 -53z m2210 -225 c31
-33 54 -49 70 -48 22 0 23 1 4 9 -17 7 -15 9 12 9 18 1 43 6 57 12 23 11 29 8
72 -40 45 -51 46 -51 106 -51 32 0 68 5 79 11 23 12 82 -5 115 -33 29 -25 47
-23 77 11 23 26 31 29 64 24 21 -3 49 -13 61 -21 20 -13 25 -13 34 -1 7 10 8
9 3 -6 -11 -30 -17 -124 -7 -100 6 13 9 -7 10 -61 1 -57 -2 -85 -11 -93 -8 -6
-46 -15 -85 -21 -156 -22 -193 -74 -160 -222 6 -29 11 -59 9 -65 -1 -7 3 -13
9 -13 5 0 10 5 10 12 0 7 17 -5 38 -25 31 -30 39 -46 40 -77 1 -22 -1 -40 -4
-40 -4 0 -23 18 -43 40 -20 22 -43 41 -51 42 -8 2 -21 11 -28 21 -14 18 -38
24 -27 6 4 -6 -13 -1 -36 11 -54 27 -62 35 -29 26 l25 -7 -25 15 c-14 9 -43
21 -65 27 -22 6 -48 18 -57 26 -10 9 -25 13 -34 9 -11 -4 -15 -2 -11 7 3 8 1
20 -4 28 -7 11 -9 10 -10 -6 -1 -16 -2 -16 -8 5 -4 14 -13 24 -20 22 -6 -1
-37 3 -69 8 -110 21 -143 21 -173 0 -31 -23 -59 -26 -59 -7 0 9 -2 9 -9 -1 -6
-9 -33 -14 -84 -15 -68 -1 -77 -3 -81 -22 -2 -11 -4 -3 -3 17 1 21 -3 37 -8
37 -5 0 -12 8 -16 18 -7 16 -8 15 -8 -4 -1 -13 3 -23 7 -23 5 0 8 -10 7 -22
-2 -13 3 -32 10 -44 12 -19 12 -21 -12 -16 -14 3 -28 15 -34 29 -5 13 -10 99
-12 192 -2 131 0 168 10 164 7 -3 20 3 29 12 15 15 19 27 23 69 1 5 4 6 8 3 7
-7 32 22 33 38 0 6 -5 3 -10 -5 -6 -9 -10 -10 -10 -3 0 7 8 20 19 30 23 22 52
78 49 95 -4 17 61 47 105 48 23 0 36 4 32 10 -16 27 35 -8 76 -51z m-2184 -41
c-3 -8 -6 -5 -6 6 -1 11 2 17 5 13 3 -3 4 -12 1 -19z m-390 -107 c17 -9 17
-10 1 -16 -24 -9 -117 33 -98 45 13 8 52 -3 97 -29z m196 -88 c58 -56 75 -106
59 -162 -15 -49 -15 -97 0 -179 9 -51 9 -67 0 -70 -7 -2 -12 -11 -12 -20 0
-19 74 -47 92 -36 7 5 8 2 3 -6 -6 -9 0 -11 22 -6 16 4 41 2 56 -3 22 -9 25
-8 20 6 -5 12 -1 14 18 8 13 -4 26 -11 29 -15 3 -4 24 -11 47 -15 62 -10 111
-58 122 -119 9 -51 22 -66 58 -66 12 0 25 -4 28 -10 3 -5 -1 -10 -9 -10 -13 0
-16 -13 -16 -63 0 -96 -29 -187 -78 -243 -45 -51 -45 -50 -42 -139 2 -57 13
-89 60 -175 25 -44 25 -83 0 -208 -10 -54 -16 -108 -13 -120 6 -23 11 -25 113
-42 147 -25 262 -51 291 -65 40 -21 62 -75 60 -147 -2 -66 10 -82 66 -92 75
-13 139 -36 160 -56 19 -17 21 -25 13 -46 -14 -35 -13 -44 5 -44 20 0 19 -30
-6 -128 l-21 -83 24 -18 c13 -11 51 -37 85 -58 39 -24 62 -45 63 -56 0 -17 -3
-17 -37 4 -155 93 -172 112 -149 176 27 77 29 118 7 162 -12 22 -21 47 -21 56
0 9 -9 15 -22 15 -16 0 -19 -3 -10 -8 12 -8 7 -42 -7 -42 -12 0 -29 49 -18 53
6 2 -23 11 -63 21 -41 10 -79 20 -85 22 -5 2 -20 -19 -31 -48 -12 -29 -25 -53
-30 -53 -4 0 -6 52 -5 115 3 130 -7 170 -41 170 -13 0 -65 9 -117 20 -87 18
-132 21 -81 5 20 -6 20 -7 3 -23 -10 -10 -18 -21 -18 -27 0 -25 -41 -75 -60
-74 -38 1 -50 13 -55 54 -7 76 -5 100 8 97 27 -5 10 15 -24 27 -59 21 -74 43
-74 109 0 31 11 104 25 162 l24 105 -24 25 c-34 36 -45 73 -47 159 -2 68 3 87
41 181 46 112 44 95 25 268 -8 75 -20 86 -137 122 -98 29 -183 66 -236 101
-48 31 -49 35 -4 18 15 -6 90 -33 167 -60 76 -27 154 -60 172 -74 36 -28 43
-23 19 12 -10 14 -52 33 -132 58 -118 37 -252 100 -254 120 -1 5 0 42 1 80 2
61 2 319 1 336 -1 6 -56 31 -93 43 -26 8 -24 40 2 33 11 -3 20 -1 20 4 0 18
17 8 63 -38z m-80 -43 c3 -11 1 -18 -4 -14 -5 3 -9 12 -9 20 0 20 7 17 13 -6z
m71 -96 c3 -8 2 -12 -4 -9 -6 3 -10 10 -10 16 0 14 7 11 14 -7z m3958 -80 c21
-15 36 -29 33 -32 -3 -3 -15 4 -28 15 -12 11 -31 25 -42 31 -11 6 -16 12 -11
12 6 0 27 -12 48 -26z m-3375 -16 c-3 -7 -5 -2 -5 12 0 14 2 19 5 13 2 -7 2
-19 0 -25z m203 -188 c10 -19 9 -20 -17 -14 -35 9 -43 13 -43 25 0 18 49 9 60
-11z m1330 -32 c0 -26 -59 -66 -140 -93 -89 -30 -100 -39 -100 -80 0 -49 -30
-70 -165 -112 -16 -5 -29 -14 -28 -21 2 -6 -4 -27 -12 -46 -9 -20 -11 -36 -6
-36 7 0 8 -19 2 -52 0 -5 -5 -8 -11 -8 -12 0 -14 133 -2 144 4 4 7 18 7 29 0
17 6 22 25 22 14 0 35 6 48 13 12 7 27 10 33 7 18 -12 58 24 68 63 6 22 23 47
39 59 41 30 109 63 130 63 26 0 71 37 83 68 8 21 12 23 19 12 6 -8 10 -23 10
-32z m610 22 c0 -5 -2 -10 -4 -10 -3 0 -8 5 -11 10 -3 6 -1 10 4 10 6 0 11 -4
11 -10z m-1970 -35 c11 -13 10 -18 -5 -29 -16 -12 -17 -24 -12 -110 3 -55 11
-104 18 -112 8 -10 9 -18 3 -22 -5 -4 -18 -42 -28 -85 -12 -50 -27 -88 -43
-105 l-24 -27 15 30 c35 73 48 157 42 259 -8 118 -14 146 -32 146 -8 0 -14 10
-14 25 0 16 6 25 15 25 8 0 15 5 15 10 0 16 36 12 50 -5z m17 -97 c-2 -13 -4
-5 -4 17 -1 22 1 32 4 23 2 -10 2 -28 0 -40z m1050 -51 c-13 -30 -30 -37 -20
-9 7 21 25 44 29 39 2 -2 -2 -15 -9 -30z m-58 -31 c-9 -8 -10 -7 -5 7 3 10 7
26 7 35 1 9 4 6 6 -7 3 -13 -1 -28 -8 -35z m-982 12 c-3 -7 -5 -2 -5 12 0 14
2 19 5 13 2 -7 2 -19 0 -25z m2143 -28 c0 -5 -9 -10 -21 -10 -11 0 -17 5 -14
10 3 6 13 10 21 10 8 0 14 -4 14 -10z m-2112 -118 c2 -15 -2 -22 -12 -22 -11
0 -16 9 -16 26 0 31 23 28 28 -4z m473 -19 c13 -16 12 -17 -3 -4 -17 13 -22
21 -14 21 2 0 10 -8 17 -17z m-126 -33 c35 -23 57 -25 85 -8 15 10 22 10 32 0
9 -9 9 -12 0 -12 -7 0 -12 -4 -12 -10 0 -5 8 -10 18 -10 25 0 64 -29 56 -42
-4 -6 -2 -8 4 -4 6 3 17 -1 25 -9 18 -17 65 -20 87 -4 12 8 10 9 -7 4 -13 -3
-23 -4 -23 -1 0 9 131 72 165 80 42 10 20 -7 -36 -28 -25 -9 -54 -23 -65 -31
-10 -8 6 -4 36 10 30 14 61 25 68 25 7 0 21 -20 32 -45 24 -56 50 -79 158
-136 103 -55 129 -83 111 -122 l-12 -26 -31 33 c-17 18 -59 48 -94 66 -80 42
-147 101 -173 151 l-19 39 -60 -30 c-89 -45 -170 -37 -203 19 -13 22 -24 28
-54 29 -68 2 -113 13 -113 27 0 19 -40 30 -50 15 -4 -7 -58 -18 -126 -27 -66
-7 -127 -18 -136 -23 -10 -6 -29 -10 -43 -10 -24 0 -25 2 -19 43 9 53 10 54
31 28 l18 -22 130 16 c71 9 134 20 139 25 16 16 49 11 81 -10z m-397 -104 c5
-22 -84 -111 -131 -131 -63 -26 -171 -17 -165 14 3 12 13 15 41 13 39 -4 122
19 170 47 16 9 35 31 43 49 14 35 36 39 42 8z m2069 -123 c-12 -12 -87 -42
-87 -35 0 4 17 15 38 24 39 18 60 23 49 11z m-902 -31 c-3 -3 -11 0 -18 7 -9
10 -8 11 6 5 10 -3 15 -9 12 -12z m470 -26 c30 -9 40 -14 25 -14 -28 0 -114
25 -90 27 8 0 38 -6 65 -13z m-410 -28 c37 -17 31 -28 -12 -21 -45 7 -47 8
-38 22 8 14 18 14 50 -1z m1175 -53 c7 -8 18 -15 26 -15 7 0 20 -8 30 -17 10
-10 31 -22 47 -28 17 -5 35 -19 41 -30 14 -25 48 -54 63 -55 6 0 22 -13 35
-29 13 -16 39 -37 58 -46 40 -20 90 -65 90 -80 0 -5 14 -22 31 -36 29 -23 30
-27 15 -41 -19 -19 -137 -48 -196 -48 -32 0 -53 -9 -96 -41 -30 -22 -60 -51
-66 -65 -14 -31 -34 -31 -42 0 -9 38 -63 70 -136 81 -60 10 -66 13 -82 45 -9
19 -21 73 -27 120 -14 118 -23 137 -74 160 -59 26 -60 28 -36 69 31 51 57 71
94 71 17 0 52 10 76 23 l44 24 46 -24 c26 -12 52 -30 59 -38z m-757 33 c57
-11 65 -19 47 -48 -9 -13 -10 -13 -10 0 0 11 -15 16 -57 19 -101 8 -116 5
-203 -34 -78 -35 -88 -37 -130 -28 -25 6 -62 18 -82 27 l-37 16 -23 -52 c-52
-124 -222 -452 -225 -436 -3 9 25 72 60 140 36 68 86 173 112 233 54 128 58
133 88 130 12 -1 39 -3 59 -4 20 0 44 -9 53 -18 16 -15 23 -13 108 31 100 52
95 51 240 24z m139 10 c7 -19 -2 -38 -18 -38 -8 0 -14 8 -14 18 0 30 23 44 32
20z m175 -14 c-9 -9 -28 6 -21 18 4 6 10 6 17 -1 6 -6 8 -13 4 -17z m-961 -39
c15 -23 15 -27 0 -50 -9 -13 -16 -38 -16 -55 0 -22 -10 -41 -30 -62 -37 -37
-50 -60 -50 -90 0 -28 -41 -118 -62 -135 -8 -7 -39 -18 -69 -23 -51 -10 -98
-45 -99 -75 0 -5 -29 -70 -66 -142 -62 -125 -68 -133 -102 -143 -51 -14 -56
-13 -98 15 -23 16 -51 25 -75 25 -54 0 -116 27 -123 53 -3 12 -6 40 -6 62 0
86 -60 144 -170 165 -30 6 -70 17 -88 25 -19 9 -63 15 -105 15 -93 0 -101 6
-92 61 4 24 11 52 17 62 11 21 37 22 45 1 5 -14 18 -16 98 -10 76 6 94 4 105
-9 16 -19 88 -19 114 0 11 8 26 15 35 15 8 0 22 6 30 14 9 7 43 28 75 45 33
17 64 35 70 40 6 5 31 12 56 16 25 4 61 14 80 22 21 9 63 14 107 14 49 -1 74
2 80 11 4 8 32 26 61 41 43 22 67 27 123 27 l69 0 0 29 c0 47 10 61 41 61 19
0 34 -8 45 -25z m741 -35 c-2 -48 -17 -54 -17 -7 0 29 6 47 16 47 2 0 3 -18 1
-40z m1913 -5 c-5 -22 -7 -48 -4 -57 4 -13 0 -15 -18 -11 -50 11 -50 12 -19
43 16 17 33 40 36 51 11 35 14 16 5 -26z m-2027 -66 c10 -30 24 -60 31 -67 7
-8 48 -18 90 -23 42 -5 116 -22 164 -38 106 -34 115 -45 109 -149 -3 -61 -1
-77 15 -98 11 -13 24 -40 29 -60 15 -52 37 -68 111 -83 73 -14 91 -28 86 -62
-3 -25 -12 -30 -82 -55 -27 -10 -67 -33 -89 -52 -22 -18 -62 -44 -88 -57 -26
-14 -55 -35 -66 -48 -30 -38 -123 -117 -137 -117 -8 0 -45 28 -82 63 -38 34
-85 78 -106 97 -30 28 -42 50 -57 105 -21 76 -39 95 -87 95 -18 0 -102 25
-186 55 -84 31 -174 59 -200 62 -27 3 -53 12 -59 19 -16 19 -3 75 26 115 13
19 54 92 90 164 36 71 68 132 71 134 2 3 48 8 102 12 53 4 133 18 177 31 44
13 89 21 100 18 13 -5 26 -26 38 -61z m118 -9 c26 -7 61 -9 93 -4 67 11 69 11
73 -1 6 -20 -62 -47 -103 -40 -21 3 -53 8 -71 11 -44 7 -63 29 -62 72 l1 37
14 -32 c11 -25 23 -35 55 -43z m182 33 c-7 -2 -19 -2 -25 0 -7 3 -2 5 12 5 14
0 19 -2 13 -5z m74 -88 c59 -26 93 -51 93 -67 0 -5 -4 -7 -9 -4 -4 3 -6 -5 -4
-17 2 -12 7 -59 11 -105 7 -66 5 -82 -5 -80 -10 2 -15 31 -19 98 -3 52 -5 101
-6 108 -1 7 -13 15 -27 18 -44 10 -106 35 -113 47 -22 35 3 35 79 2z m121
-270 l1 -20 -9 20 c-5 11 -8 31 -8 45 l0 25 8 -25 c4 -14 8 -34 8 -45z m1242
35 c0 -5 -2 -10 -4 -10 -3 0 -8 5 -11 10 -3 6 -1 10 4 10 6 0 11 -4 11 -10z
m-361 -51 c67 -21 82 -29 88 -45 11 -29 -13 -38 -44 -16 -18 13 -52 22 -97 26
-78 6 -272 -16 -342 -40 -25 -8 -48 -13 -50 -11 -7 7 66 48 98 54 15 3 28 10
28 15 0 6 11 8 25 6 14 -3 25 -2 25 3 0 18 217 24 269 8z m-2124 -9 c-3 -5
-32 -9 -63 -9 -47 1 -52 3 -27 9 45 12 97 12 90 0z m1257 -27 c7 -14 22 -28
33 -29 11 -2 44 -6 72 -10 57 -7 67 -14 77 -56 8 -34 -13 -38 -32 -8 -9 15
-23 20 -60 20 -38 0 -54 6 -79 28 -30 26 -53 82 -34 82 6 0 16 -12 23 -27z
m-1252 -31 c0 -9 112 -62 170 -81 19 -7 46 -18 60 -27 l25 -15 -25 7 c-14 3
-22 3 -17 -1 4 -5 22 -9 40 -10 25 -2 222 -76 247 -93 2 -2 -2 -7 -10 -12 -26
-16 14 -12 46 5 34 17 44 10 50 -40 9 -73 43 -127 143 -222 53 -51 92 -93 88
-93 -4 0 -18 9 -30 21 -12 11 -35 23 -50 26 -58 12 -167 169 -167 242 0 15
-11 20 -51 25 -45 6 -238 82 -464 183 -44 20 -96 41 -115 48 l-35 12 -53 -121
c-29 -66 -61 -132 -71 -145 -19 -25 -76 -39 -164 -40 -76 -1 -54 23 28 31 125
12 117 6 184 164 58 140 62 144 122 144 27 0 49 -4 49 -8z m1470 -22 c0 -5 -4
-10 -10 -10 -5 0 -10 5 -10 10 0 6 5 10 10 10 6 0 10 -4 10 -10z m940 -14 c0
-7 -9 -16 -19 -19 -17 -4 -18 -2 -8 14 14 22 27 25 27 5z m-262 -25 c3 -10 0
-12 -12 -8 -8 3 -39 10 -68 14 -51 7 -52 7 -18 13 46 7 92 -2 98 -19z m-435
-41 c25 -16 48 -38 52 -47 6 -17 7 -17 16 -1 23 42 65 49 254 47 99 -1 206 1
237 6 49 6 59 4 78 -13 18 -17 20 -24 11 -41 -13 -23 -27 -27 -33 -9 -3 9 -57
13 -209 14 -112 1 -177 -1 -144 -5 39 -4 60 -10 59 -18 -1 -7 -2 -37 -3 -66
-2 -78 -10 -85 -119 -93 -53 -4 -92 -3 -91 2 1 5 -3 22 -9 37 -15 37 -15 97 0
97 6 0 9 3 6 6 -11 10 -80 -15 -104 -37 -19 -18 -26 -20 -39 -9 -23 19 -18 30
16 30 26 0 30 3 27 23 -2 16 -11 23 -30 25 -28 3 -36 16 -18 27 6 3 10 10 10
16 0 15 -74 10 -98 -7 -27 -18 -67 -15 -67 6 0 10 13 16 40 18 22 2 44 8 50
13 18 18 64 9 108 -21z m-1693 -26 c30 -14 89 -39 130 -56 41 -17 82 -37 90
-44 8 -7 33 -17 55 -22 22 -6 63 -19 90 -31 28 -11 69 -25 92 -31 35 -9 44
-16 49 -38 11 -50 27 -87 56 -123 15 -20 28 -41 28 -46 0 -11 -43 -33 -63 -33
-7 0 -25 -7 -42 -16 -16 -8 -52 -18 -78 -21 -27 -3 -63 -16 -80 -28 -36 -24
-124 -55 -157 -55 -11 0 -32 -7 -45 -16 -23 -15 -27 -15 -50 0 -30 20 -93 20
-119 1 -11 -8 -27 -15 -37 -15 -9 0 -28 -9 -42 -20 -38 -30 -64 -25 -88 15
-16 26 -28 35 -47 35 -41 0 -55 14 -61 61 -6 43 -17 54 -61 63 -14 3 -36 19
-48 36 l-22 30 25 50 c30 59 48 70 117 70 88 0 125 32 168 148 24 63 56 112
73 112 7 0 37 -12 67 -26z m1487 -49 c31 -11 38 -18 38 -40 1 -14 -6 -30 -15
-35 -12 -7 -12 -11 -3 -21 13 -13 22 -10 95 27 33 18 48 18 48 0 0 -36 -157
-78 -169 -45 -5 14 -11 14 -56 -2 -28 -10 -41 -18 -30 -19 14 -1 10 -5 -15
-14 -71 -27 -360 -197 -360 -213 0 -5 34 15 168 100 98 61 134 72 60 18 -23
-17 -35 -31 -27 -32 7 -1 -4 -7 -26 -13 -35 -11 -42 -19 -60 -67 -26 -71 -48
-109 -77 -136 -21 -20 -27 -21 -56 -11 -18 7 -32 18 -32 25 0 7 -9 18 -19 25
-16 10 -18 15 -8 27 9 11 5 10 -20 -2 -45 -24 -61 -21 -29 4 15 12 25 27 23
33 -3 7 27 34 65 62 39 27 87 61 107 76 157 117 282 186 339 187 25 1 29 17 8
40 -7 9 -17 29 -20 46 -7 29 -7 29 13 11 11 -10 37 -24 58 -31z m123 5 c0 -5
-4 -10 -9 -10 -6 0 -13 5 -16 10 -3 6 1 10 9 10 9 0 16 -4 16 -10z m680 -20
c0 -5 -7 -10 -15 -10 -8 0 -15 5 -15 10 0 6 7 10 15 10 8 0 15 -4 15 -10z
m-850 -149 c0 -16 -17 -21 -50 -15 -22 5 -28 9 -18 15 18 12 68 11 68 0z
m-637 -168 c30 -38 14 -26 -43 34 -42 43 -45 48 -15 22 23 -18 49 -44 58 -56z
m-1373 36 c0 -52 -24 -48 -28 4 -2 28 1 37 12 37 12 0 16 -11 16 -41z m1430
-84 c7 -8 8 -15 2 -15 -5 0 -15 7 -22 15 -7 8 -8 15 -2 15 5 0 15 -7 22 -15z
m-120 -5 c0 -5 -10 -10 -22 -10 -19 0 -20 2 -8 10 19 13 30 13 30 0z m22 -31
c28 -15 68 -51 68 -61 0 -5 -14 1 -31 13 -29 20 -35 21 -83 10 -59 -14 -265
-99 -346 -144 -67 -37 -150 -96 -148 -105 3 -14 -15 -42 -23 -36 -34 21 28
103 113 149 29 16 58 34 63 41 18 23 280 126 363 143 2 1 12 -4 24 -10z m138
-47 c0 -14 -82 -132 -91 -132 -17 0 44 115 68 129 22 13 23 13 23 3z m-140
-57 c10 -12 9 -20 -4 -40 -12 -18 -16 -49 -16 -119 0 -52 -4 -97 -9 -100 -5
-4 -23 6 -39 21 -16 16 -41 38 -57 51 -20 17 -26 28 -21 45 3 12 6 34 6 49 0
33 24 58 55 58 16 0 25 7 29 25 7 28 36 34 56 10z m101 -129 c-9 -57 -8 -87 4
-156 17 -99 19 -150 5 -150 -5 0 -10 -7 -10 -15 0 -8 -38 -55 -85 -104 -103
-109 -139 -165 -166 -253 -19 -65 -32 -82 -42 -55 -6 16 -6 15 -46 -68 -54
-113 -105 -194 -179 -286 -38 -47 -73 -95 -76 -107 -4 -12 -11 -20 -16 -17
-23 14 21 98 106 198 97 114 156 208 209 337 19 45 41 93 50 106 8 13 15 27
15 32 0 5 52 60 115 122 99 98 115 118 114 144 -1 20 -3 24 -6 11 -2 -11 -57
-71 -121 -132 -131 -127 -115 -124 -203 -41 -49 45 -75 85 -64 96 4 4 15 -3
25 -15 36 -45 66 -78 88 -97 23 -20 22 -21 152 104 20 19 49 44 65 56 l30 21
-12 64 c-7 35 -19 92 -26 126 -8 34 -12 65 -9 67 8 8 51 -123 58 -177 4 -26 9
-45 12 -43 3 3 -1 38 -7 78 -11 62 -10 83 3 141 9 38 17 80 17 95 1 20 3 22 6
8 3 -11 0 -51 -6 -90z m-681 -235 c53 -27 55 -30 58 -73 5 -75 -45 -103 -92
-53 -20 21 -32 25 -82 25 -36 -1 -67 -6 -78 -15 -12 -9 -43 -15 -80 -15 -34 0
-92 -5 -130 -10 -38 -6 -77 -8 -87 -5 -39 13 -30 67 13 80 13 4 30 16 39 27 9
12 54 34 100 49 76 26 93 28 184 24 85 -4 108 -9 155 -34z m182 -72 c32 -43
63 -79 69 -79 5 0 7 6 3 13 -5 8 -2 8 9 -2 9 -7 17 -19 16 -25 0 -7 -2 -6 -6
2 -5 13 -23 7 -23 -8 0 -4 36 -34 80 -67 83 -60 97 -80 56 -80 -41 0 -215 193
-276 307 -8 15 -8 20 2 19 7 0 39 -36 70 -80z m-944 -143 c2 -10 -6 -24 -17
-32 -12 -9 -21 -20 -21 -27 0 -6 -30 -40 -66 -74 -67 -63 -109 -82 -153 -68
-28 9 -27 18 11 60 17 20 45 60 62 88 30 50 32 52 96 63 78 13 84 12 88 -10z
m1152 -126 c0 -5 -2 -10 -4 -10 -3 0 -8 5 -11 10 -3 6 -1 10 4 10 6 0 11 -4
11 -10z m-36 -64 c3 -29 -3 -42 -28 -68 -17 -18 -39 -46 -49 -61 l-19 -29 -22
21 c-27 26 -40 16 -50 -39 -3 -19 -7 -44 -9 -55 -2 -11 -12 -38 -22 -60 -13
-28 -19 -35 -22 -23 -2 9 1 26 7 37 6 12 7 21 3 21 -12 0 -43 -59 -43 -82 0
-15 5 -19 18 -14 16 6 16 5 0 -8 -10 -7 -18 -18 -18 -25 0 -6 -7 -11 -15 -11
-9 0 -15 9 -15 24 0 14 -5 28 -11 32 -8 5 -6 10 5 16 9 5 16 17 16 28 0 10 7
25 15 34 9 9 11 17 5 21 -20 12 -10 34 18 37 20 2 28 9 30 27 2 15 0 21 -7 17
-6 -4 -11 -1 -11 7 0 19 27 30 33 14 4 -11 10 0 23 42 3 9 13 12 34 7 22 -4
30 -2 30 8 0 8 11 21 25 30 14 9 34 35 46 57 23 47 29 46 33 -5z m-1586 -150
c266 -66 772 -322 822 -417 11 -19 11 -19 -27 1 -44 23 -46 21 -74 -65 -18
-57 -41 -68 -80 -37 -20 17 -24 30 -27 95 -2 42 1 83 7 95 10 18 3 25 -74 71
-79 48 -193 101 -214 101 -5 0 -15 -25 -21 -55 -12 -59 -19 -68 -44 -59 -13 5
-16 22 -16 79 l0 73 -67 25 c-38 14 -97 35 -133 48 -65 22 -172 74 -135 65 11
-3 48 -12 83 -20z m1292 -255 c0 -12 -41 -63 -47 -57 -7 7 26 66 37 66 6 0 10
-4 10 -9z m18 -73 c-7 -13 -69 -80 -137 -150 -91 -93 -125 -134 -127 -155 -11
-109 -23 -147 -53 -170 -30 -23 -34 -13 -29 71 l6 85 -28 6 c-20 4 -32 15 -39
37 -17 48 -13 55 14 25 14 -15 29 -27 32 -27 3 0 34 26 68 58 136 128 229 207
246 210 10 2 23 10 29 18 19 22 32 16 18 -8z"/>
<path d="M5871 4994 c0 -11 3 -14 6 -6 3 7 2 16 -1 19 -3 4 -6 -2 -5 -13z"/>
<path d="M6450 4881 c0 -21 16 -27 69 -22 15 1 22 -2 19 -11 -3 -7 -13 -13
-24 -13 -24 0 -46 -14 -39 -25 3 -4 14 -6 24 -3 25 6 91 -25 91 -44 0 -7 6
-13 13 -12 26 3 36 -2 66 -32 l31 -31 0 36 c0 38 0 38 -92 75 -27 10 -39 31
-17 31 5 0 8 4 4 10 -3 5 -13 6 -23 3 -13 -5 -15 -3 -5 7 19 21 -12 42 -68 48
-45 4 -49 3 -49 -17z"/>
<path d="M6640 4690 c0 -5 5 -10 11 -10 5 0 7 5 4 10 -3 6 -8 10 -11 10 -2 0
-4 -4 -4 -10z"/>
<path d="M4185 4572 c40 -25 65 -64 65 -99 0 -22 2 -25 10 -13 19 30 11 67
-21 94 -17 14 -34 26 -39 26 -5 0 -17 3 -27 6 -10 3 -4 -3 12 -14z"/>
<path d="M4285 4309 c0 -115 1 -119 13 -77 28 92 28 198 -1 198 -9 0 -12 -32
-12 -121z"/>
<path d="M4200 3999 c0 -5 5 -7 10 -4 6 3 10 8 10 11 0 2 -4 4 -10 4 -5 0 -10
-5 -10 -11z"/>
<path d="M4230 3826 c0 -8 4 -17 9 -20 5 -4 7 3 4 14 -6 23 -13 26 -13 6z"/>
<path d="M4278 3725 c-3 -5 -9 -37 -12 -70 l-7 -60 16 43 c15 41 18 109 3 87z"/>
<path d="M4252 3570 c0 -14 2 -19 5 -12 2 6 2 18 0 25 -3 6 -5 1 -5 -13z"/>
<path d="M4231 3471 c-8 -13 -7 -22 2 -29 20 -16 128 -49 217 -67 219 -43 240
-55 240 -139 0 -28 5 -58 10 -66 7 -10 10 7 10 57 0 98 -19 120 -114 134 -38
5 -118 21 -179 36 -93 23 -115 32 -143 60 -31 31 -34 32 -43 14z"/>
<path d="M4328 3363 c7 -3 16 -2 19 1 4 3 -2 6 -13 5 -11 0 -14 -3 -6 -6z"/>
<path d="M5495 4430 c-3 -5 -2 -10 4 -10 5 0 13 5 16 10 3 6 2 10 -4 10 -5 0
-13 -4 -16 -10z"/>
<path d="M5620 4056 c0 -2 16 -13 36 -25 19 -12 32 -16 29 -11 -7 11 -65 43
-65 36z"/>
<path d="M6088 3993 c6 -2 18 -2 25 0 6 3 1 5 -13 5 -14 0 -19 -2 -12 -5z"/>
<path d="M5470 3391 c14 -11 30 -21 35 -21 11 0 -7 14 -40 31 -13 7 -12 3 5
-10z"/>
<path d="M5530 3360 c8 -5 20 -10 25 -10 6 0 3 5 -5 10 -8 5 -19 10 -25 10 -5
0 -3 -5 5 -10z"/>
<path d="M5580 3342 c8 -5 26 -13 40 -16 17 -5 20 -4 10 2 -8 5 -26 13 -40 16
-17 5 -20 4 -10 -2z"/>
<path d="M6975 3200 c-3 -5 -2 -10 4 -10 5 0 13 5 16 10 3 6 2 10 -4 10 -5 0
-13 -4 -16 -10z"/>
<path d="M4893 8590 c14 -11 29 -20 34 -20 11 1 -37 40 -49 40 -6 0 1 -9 15
-20z"/>
<path d="M5786 8525 c-3 -8 -8 -37 -12 -65 -6 -43 -4 -51 12 -56 11 -4 27 -14
36 -22 14 -12 28 -12 86 -2 38 6 80 17 94 24 19 10 28 11 41 1 25 -18 21 -30
-22 -88 l-40 -51 27 -12 c33 -14 57 -3 77 35 26 52 -17 135 -88 170 -37 18
-42 19 -70 5 -41 -22 -97 -11 -90 17 3 11 -2 28 -12 39 -22 24 -31 25 -39 5z"/>
<path d="M6024 8455 c26 -19 42 -19 26 0 -7 8 -20 15 -29 15 -13 -1 -13 -3 3
-15z"/>
<path d="M2120 8313 c-52 -25 -123 -50 -157 -57 -58 -10 -64 -14 -82 -49 -21
-41 -20 -43 12 -23 12 7 52 17 89 20 50 5 80 14 117 37 27 17 64 32 81 32 31
2 33 -1 47 -48 8 -29 26 -61 42 -76 30 -28 102 -49 169 -49 20 0 46 -7 56 -15
28 -21 50 -19 85 11 18 15 38 24 47 20 10 -4 25 5 41 25 23 27 30 30 65 24 28
-5 44 -3 56 8 9 8 32 18 50 22 18 4 37 15 42 26 9 16 7 21 -15 29 -38 14 -43
13 -62 -16 -17 -27 -21 -27 -104 -8 -22 5 -34 -2 -72 -40 -50 -52 -78 -58
-114 -24 -22 20 -26 21 -88 9 -54 -10 -70 -9 -93 3 -58 30 -81 63 -97 134 -7
35 4 42 29 16 9 -8 16 -11 16 -6 0 14 -35 42 -51 41 -8 0 -57 -21 -109 -46z"/>
<path d="M6126 8341 c-4 -5 -2 -12 3 -15 5 -4 12 -2 15 3 4 5 2 12 -3 15 -5 4
-12 2 -15 -3z"/>
<path d="M6165 8310 l6 -45 -21 25 -22 25 -21 -30 c-18 -26 -184 -195 -191
-195 -1 0 -2 10 -2 22 1 19 -4 23 -27 23 -15 0 -31 6 -35 12 -7 10 -12 10 -27
0 -17 -13 -15 -15 20 -33 41 -20 57 -44 30 -44 -9 0 -30 7 -47 16 -29 15 -32
15 -45 -1 -7 -10 -10 -29 -7 -42 5 -18 1 -28 -15 -39 -25 -18 -27 -37 -6 -54
18 -15 20 -46 3 -56 -24 -15 -65 -13 -105 6 -79 37 -91 17 -30 -48 29 -30 30
-33 14 -49 -14 -15 -22 -16 -48 -6 -56 22 -82 -11 -34 -43 24 -16 27 -16 39 2
13 16 14 15 21 -15 9 -40 3 -46 -24 -29 -15 9 -26 10 -37 3 -18 -11 -19 -32
-2 -27 6 1 19 0 31 -4 20 -6 20 -7 1 -21 -18 -14 -17 -14 11 -12 35 3 75 -8
75 -22 0 -5 4 -9 10 -9 5 0 7 8 3 18 -5 14 -3 13 10 -3 l16 -20 1 20 c0 26 -9
37 -42 54 -34 18 -35 39 -4 66 18 16 21 24 12 37 -8 13 -7 21 1 29 16 16 44 4
50 -21 3 -11 14 -20 24 -20 21 0 24 11 9 26 -7 7 -4 19 10 37 12 15 17 27 12
27 -6 0 -13 -6 -15 -12 -3 -7 -6 -3 -6 10 -1 12 6 25 14 28 8 4 15 15 15 25 0
10 5 19 10 19 6 0 10 8 10 18 0 15 2 15 10 2 9 -13 14 -11 34 11 20 24 25 25
47 14 23 -13 23 -13 -23 -42 -26 -15 -48 -31 -48 -35 0 -3 20 -6 45 -6 35 0
45 4 50 19 4 11 18 24 32 30 34 13 41 11 19 -6 -16 -12 -17 -18 -8 -27 9 -9
33 -9 105 -1 98 12 188 9 219 -8 20 -11 20 -11 0 -32 -11 -12 -30 -41 -42 -65
l-23 -43 -21 20 c-31 30 -44 26 -16 -4 13 -14 21 -28 18 -31 -7 -6 -37 22 -54
52 -10 15 -16 17 -30 8 -23 -13 -29 -60 -12 -93 12 -22 21 -25 81 -28 61 -2
71 0 88 20 23 28 23 36 2 53 -16 12 -15 14 15 20 25 5 32 11 26 23 -20 48 -14
67 13 40 6 -6 16 -8 22 -5 15 9 14 49 -1 64 -9 9 -8 12 4 12 27 0 31 32 6 51
-19 15 -24 15 -33 3 -8 -12 -16 -11 -52 7 -24 12 -43 25 -43 30 0 15 -31 10
-94 -15 -34 -13 -77 -27 -96 -31 -35 -6 -35 -6 -53 45 -26 72 -13 77 32 13 22
-32 54 -43 66 -23 3 5 -5 12 -19 16 -13 3 -32 15 -42 25 -17 19 -17 20 4 35
15 11 20 22 17 37 -5 17 8 36 59 87 67 67 81 102 55 140 -7 11 -9 3 -4 -30z
m-215 -265 c0 -14 -37 -31 -47 -21 -4 3 -1 6 6 6 7 0 11 6 8 13 -3 8 3 14 14
14 10 1 19 -4 19 -12z m230 -319 c0 -3 -4 -8 -10 -11 -5 -3 -10 -1 -10 4 0 6
5 11 10 11 6 0 10 -2 10 -4z"/>
<path d="M2918 8304 c-16 -8 -28 -19 -28 -24 0 -14 18 -21 25 -9 4 6 26 19 49
29 40 18 40 19 11 19 -16 0 -42 -7 -57 -15z"/>
<path d="M2290 8259 c0 -16 21 -38 50 -54 8 -5 4 5 -10 21 -14 16 -28 33 -32
39 -5 5 -8 2 -8 -6z"/>
<path d="M5926 8195 c-20 -30 -20 -45 -3 -45 21 0 50 37 44 55 -9 22 -22 19
-41 -10z"/>
<path d="M1830 8148 c-14 -5 -65 -15 -115 -22 -73 -9 -90 -15 -93 -30 -7 -34
14 -40 130 -37 111 2 139 11 118 36 -5 6 -7 20 -4 32 7 26 -4 33 -36 21z"/>
<path d="M1556 8058 c-25 -51 -26 -58 -20 -173 6 -118 13 -145 40 -145 7 0 22
-13 33 -29 13 -18 35 -32 58 -38 l38 -9 5 -91 c5 -87 14 -123 24 -92 2 8 10
62 16 121 l12 107 -64 88 c-34 48 -80 105 -100 125 -36 35 -50 56 -29 43 6 -3
8 9 4 29 -3 18 0 50 7 71 18 56 5 52 -24 -7z"/>
<path d="M1679 7848 c29 -43 51 -67 51 -54 0 6 -7 15 -60 76 -12 14 -8 4 9
-22z"/>
<path d="M5798 7835 c-9 -21 -8 -27 13 -44 17 -14 26 -16 31 -8 12 18 9 52 -4
65 -18 18 -27 15 -40 -13z"/>
<path d="M6830 7840 c8 -5 22 -10 30 -10 13 0 13 1 0 10 -8 5 -22 10 -30 10
-13 0 -13 -1 0 -10z"/>
<path d="M5724 7755 c-8 -21 4 -35 31 -35 28 0 75 20 75 32 0 13 -18 9 -23 -4
-3 -10 -12 -9 -35 5 -37 21 -41 21 -48 2z"/>
<path d="M1786 7609 c-17 -251 -26 -324 -45 -349 -10 -14 -51 -39 -92 -56
-162 -69 -247 -107 -300 -135 -31 -16 -66 -29 -77 -29 -54 0 -92 -71 -92 -171
0 -61 -21 -149 -44 -184 -8 -12 -48 -43 -88 -66 -66 -40 -73 -47 -76 -79 -2
-20 4 -44 12 -55 15 -19 15 -18 16 20 0 40 1 40 77 80 97 51 112 76 119 206 8
137 17 151 144 215 58 30 116 54 129 54 22 0 184 85 255 133 45 31 64 88 75
227 15 172 16 253 4 275 -8 14 -12 -7 -17 -86z"/>
<path d="M7090 7499 c0 -2 -4 -19 -10 -37 l-9 -33 37 3 36 3 -1 -42 c-1 -47
-1 -48 28 -32 17 8 19 16 13 42 -4 18 -7 40 -6 49 1 20 -33 42 -49 33 -5 -4
-16 -1 -24 5 -8 7 -15 11 -15 9z"/>
<path d="M7093 7390 l-22 -17 25 -13 c13 -8 24 -17 24 -22 0 -5 4 -7 8 -4 9 6
4 64 -7 70 -3 2 -16 -4 -28 -14z"/>
<path d="M1679 7279 c-30 -32 -23 -39 11 -11 13 10 21 23 19 29 -2 6 -16 -2
-30 -18z"/>
<path d="M8759 6883 c-1 -4 -3 -18 -4 -31 -1 -12 -6 -26 -10 -30 -4 -4 -5 1
-3 10 1 9 -1 18 -7 20 -5 2 -11 -10 -13 -26 -3 -24 -1 -28 13 -22 13 5 16 2
11 -10 -3 -8 -6 -18 -6 -20 0 -9 -39 -3 -42 7 -5 16 -36 0 -44 -23 -9 -28 5
-37 22 -13 15 20 15 20 12 0 -2 -11 -7 -26 -11 -32 -6 -10 0 -11 25 -6 45 8
54 17 67 68 14 55 14 102 1 110 -5 3 -11 3 -11 -2z"/>
<path d="M8632 6842 c-7 -5 -15 -26 -19 -46 -5 -34 -4 -38 13 -34 13 2 18 10
16 24 -1 12 4 27 13 34 28 23 9 42 -23 22z"/>
<path d="M8680 6677 c0 -7 -9 -18 -20 -25 -23 -14 -26 -37 -5 -45 16 -7 29 8
20 23 -3 5 3 15 14 21 10 7 17 19 14 26 -7 17 -23 17 -23 0z"/>
<path d="M8593 6660 c-18 -10 -47 -23 -65 -28 -44 -11 -44 -38 0 -34 23 1 32
-2 32 -14 0 -8 -4 -12 -10 -9 -5 3 -18 1 -27 -4 -16 -9 -16 -10 5 -11 18 0 22
-6 22 -30 0 -35 4 -37 31 -11 12 11 18 25 14 31 -4 7 -2 16 6 20 10 7 10 11
-1 25 -11 14 -9 21 20 50 38 39 24 47 -27 15z"/>
<path d="M6409 6626 c-44 -14 -51 -47 -14 -64 56 -26 106 17 67 56 -16 16 -24
17 -53 8z m24 -38 c-14 -26 -18 -29 -21 -15 -2 10 5 25 15 32 25 20 26 19 6
-17z"/>
<path d="M8626 6593 c-11 -12 -6 -19 14 -20 11 -1 20 2 20 7 0 10 -26 20 -34
13z"/>
<path d="M6655 6550 c3 -5 8 -10 11 -10 2 0 4 5 4 10 0 6 -5 10 -11 10 -5 0
-7 -4 -4 -10z"/>
<path d="M8635 6550 c-3 -5 -1 -10 4 -10 6 0 11 5 11 10 0 6 -2 10 -4 10 -3 0
-8 -4 -11 -10z"/>
<path d="M8457 6508 c-8 -28 -1 -38 27 -38 27 0 46 18 46 42 0 29 -66 25 -73
-4z"/>
<path d="M1030 6513 c0 -5 84 -40 110 -46 23 -6 318 -49 415 -62 31 -4 35 -3
15 4 -14 5 -20 9 -15 10 18 2 326 -62 321 -66 -2 -3 -41 3 -85 12 -45 9 -87
14 -94 12 -7 -3 -2 -6 10 -6 28 -1 308 -72 401 -101 79 -25 92 -38 19 -18 -50
13 -72 7 -118 -36 -13 -12 -57 -49 -97 -84 -47 -40 -66 -62 -54 -62 22 0 99
48 127 80 11 12 41 40 66 61 l47 39 88 -29 c49 -16 138 -47 198 -70 123 -46
146 -49 234 -22 34 11 62 17 62 15 0 -2 -17 -12 -37 -22 -21 -10 -37 -24 -35
-31 2 -8 -4 -10 -16 -7 -10 3 -27 -1 -38 -10 -18 -14 -18 -15 4 -4 13 7 26 10
28 7 6 -6 -149 -87 -168 -88 -7 0 -33 -14 -58 -29 -25 -16 -70 -41 -100 -56
-30 -15 -57 -31 -60 -35 -3 -4 -70 -6 -150 -5 -140 1 -149 0 -252 -33 -59 -19
-106 -36 -104 -38 2 -2 41 6 87 18 63 16 128 23 264 28 l180 6 102 62 c56 35
134 79 174 98 40 19 80 42 90 51 10 9 35 22 56 29 24 9 37 19 35 28 -5 27 36
30 80 7 l40 -21 38 41 c27 29 45 40 66 40 22 0 26 3 14 10 -12 8 -9 10 13 10
16 0 37 5 49 11 11 6 22 8 25 5 3 -3 -8 -12 -26 -19 -35 -15 -31 -27 9 -27 26
0 66 31 54 43 -3 3 4 10 15 17 12 6 21 8 21 4 0 -4 9 1 21 12 11 10 18 26 16
36 -4 12 3 19 23 23 34 7 46 20 55 58 13 49 32 50 145 14 45 -15 47 -14 85 14
25 19 51 29 73 29 30 0 33 2 21 16 -10 12 -23 14 -54 9 -79 -13 -185 -20 -187
-13 -2 4 -22 10 -45 14 l-42 6 -23 -48 c-16 -34 -34 -53 -60 -67 -21 -10 -38
-23 -38 -28 0 -4 -14 -25 -32 -45 l-32 -36 -73 7 c-73 7 -73 7 -103 -25 -17
-18 -30 -35 -30 -39 0 -3 -30 -6 -67 -6 -39 0 -85 -7 -108 -16 -22 -9 -44 -15
-50 -14 -63 16 -135 40 -135 45 0 4 -20 13 -44 19 -25 6 -48 16 -51 21 -4 6
-11 8 -16 4 -9 -5 -35 2 -94 26 -11 5 -44 16 -72 25 -29 9 -52 21 -50 26 3 16
-83 45 -221 74 -70 15 -161 36 -203 46 -41 10 -87 19 -102 19 -15 0 -35 4 -45
9 -45 24 -512 82 -512 64z m253 -50 c-7 -2 -19 -2 -25 0 -7 3 -2 5 12 5 14 0
19 -2 13 -5z m64 -9 c-3 -3 -12 -4 -19 -1 -8 3 -5 6 6 6 11 1 17 -2 13 -5z
m66 -11 c-7 -2 -19 -2 -25 0 -7 3 -2 5 12 5 14 0 19 -2 13 -5z m60 -10 c-7 -2
-19 -2 -25 0 -7 3 -2 5 12 5 14 0 19 -2 13 -5z m60 -10 c-7 -2 -19 -2 -25 0
-7 3 -2 5 12 5 14 0 19 -2 13 -5z m1857 -13 c0 -13 -20 -13 -40 0 -12 8 -9 10
13 10 15 0 27 -4 27 -10z m-1467 -67 c-7 -2 -19 -2 -25 0 -7 3 -2 5 12 5 14 0
19 -2 13 -5z m74 -19 c-3 -3 -12 -4 -19 -1 -8 3 -5 6 6 6 11 1 17 -2 13 -5z
m40 -10 c-3 -3 -12 -4 -19 -1 -8 3 -5 6 6 6 11 1 17 -2 13 -5z m40 -10 c-3 -3
-12 -4 -19 -1 -8 3 -5 6 6 6 11 1 17 -2 13 -5z m290 -120 c-3 -3 -12 -4 -19
-1 -8 3 -5 6 6 6 11 1 17 -2 13 -5z m143 -44 c20 -6 21 -8 5 -8 -11 0 -29 3
-40 8 -25 11 1 11 35 0z"/>
<path d="M1608 6393 c7 -3 16 -2 19 1 4 3 -2 6 -13 5 -11 0 -14 -3 -6 -6z"/>
<path d="M1648 6383 c6 -2 18 -2 25 0 6 3 1 5 -13 5 -14 0 -19 -2 -12 -5z"/>
<path d="M1307 6163 c-22 -39 98 -113 184 -113 37 0 135 33 184 61 20 12 39
19 42 15 3 -3 1 -30 -5 -58 -6 -29 -15 -83 -18 -121 -6 -59 -5 -67 9 -61 10 3
18 24 22 57 3 29 10 72 15 97 5 25 12 64 14 88 7 64 -11 61 -178 -33 -42 -23
-56 -26 -99 -21 -28 4 -63 17 -79 29 -15 12 -41 32 -57 45 -16 12 -32 19 -34
15z"/>
<path d="M8400 5986 c0 -20 6 -36 14 -39 8 -3 17 -24 21 -47 7 -43 9 -45 63
-54 42 -7 42 9 -3 52 -28 28 -33 39 -28 63 7 35 -11 59 -43 59 -21 0 -24 -5
-24 -34z"/>
<path d="M8881 5976 c-7 -8 -21 -12 -33 -8 -18 4 -20 2 -14 -21 5 -22 -3 -37
-50 -92 -31 -37 -54 -69 -51 -72 6 -6 126 134 150 176 19 32 18 41 -2 17z"/>
<path d="M8450 5806 c0 -24 36 -39 60 -24 29 18 19 32 -23 36 -28 2 -37 -1
-37 -12z"/>
<path d="M8424 5769 c-4 -8 -7 -21 -6 -30 2 -9 -4 -19 -13 -23 -20 -7 -10 -26
14 -26 10 0 26 -9 36 -20 24 -26 32 -25 39 4 7 27 -1 56 -16 56 -5 0 -6 -4 -3
-10 3 -5 -4 -10 -15 -10 -16 0 -20 5 -16 15 3 8 2 25 -3 37 -6 17 -9 19 -17 7z"/>
<path d="M5973 5630 c0 -25 2 -35 4 -22 2 12 2 32 0 45 -2 12 -4 2 -4 -23z"/>
<path d="M8493 5623 c-4 -10 -11 -21 -17 -25 -18 -12 0 -18 33 -12 36 8 52 31
30 45 -22 14 -39 11 -46 -8z"/>
<path d="M3340 5360 c-65 -7 -34 -22 50 -23 38 0 67 -4 65 -8 -6 -9 16 -17 33
-12 24 9 11 21 -35 33 -66 17 -63 16 -113 10z"/>
<path d="M2941 5351 c-26 -16 11 -101 44 -101 22 0 34 61 17 86 -10 17 -45 25
-61 15z"/>
<path d="M3640 5290 c0 -5 5 -10 11 -10 5 0 7 5 4 10 -3 6 -8 10 -11 10 -2 0
-4 -4 -4 -10z"/>
<path d="M5252 5051 c-11 -7 -10 -10 3 -15 23 -9 25 -8 25 9 0 17 -9 19 -28 6z"/>
<path d="M4545 5010 c3 -5 8 -10 11 -10 2 0 4 5 4 10 0 6 -5 10 -11 10 -5 0
-7 -4 -4 -10z"/>
<path d="M5520 4962 c0 -15 11 -21 27 -15 12 5 12 7 1 14 -17 11 -28 11 -28 1z"/>
<path d="M6771 4774 c0 -11 3 -14 6 -6 3 7 2 16 -1 19 -3 4 -6 -2 -5 -13z"/>
<path d="M6770 4740 c0 -5 7 -10 16 -10 8 0 12 5 9 10 -3 6 -10 10 -16 10 -5
0 -9 -4 -9 -10z"/>
<path d="M8210 4692 c0 -4 5 -13 12 -20 8 -8 8 -15 0 -25 -7 -8 -10 -16 -7
-18 2 -3 -20 -18 -50 -35 -30 -16 -55 -34 -55 -40 0 -15 25 -36 33 -27 4 3 7
1 7 -5 0 -7 -4 -12 -10 -12 -5 0 -10 -4 -10 -10 0 -5 7 -10 15 -10 8 0 15 -6
15 -13 0 -7 9 -18 20 -25 28 -17 25 -41 -7 -48 -72 -15 -93 -26 -99 -49 -6
-23 0 -32 45 -80 27 -28 73 -66 76 -63 2 2 6 20 10 41 7 36 6 37 -25 43 -24 5
-30 11 -27 25 3 10 0 20 -7 23 -7 3 -3 10 9 17 33 20 75 70 75 88 -1 9 -7 27
-15 41 -26 45 -19 68 30 102 47 33 59 70 33 96 -13 13 -68 17 -68 4z m-10
-122 c0 -5 -7 -10 -15 -10 -8 0 -15 5 -15 10 0 6 7 10 15 10 8 0 15 -4 15 -10z"/>
<path d="M8072 4243 c-18 -3 -36 -11 -39 -20 -7 -18 15 -35 38 -28 9 3 27 -7
42 -25 35 -38 55 -39 28 -1 -12 16 -21 41 -21 55 0 14 -3 25 -7 24 -5 0 -23
-3 -41 -5z"/>
<path d="M8160 4190 c6 -11 15 -20 20 -20 16 0 11 27 -6 34 -24 9 -26 8 -14
-14z"/>
<path d="M8086 4111 c1 -33 5 -66 10 -73 4 -7 4 -10 -1 -6 -4 4 -14 0 -20 -9
-12 -16 -14 -16 -38 0 -17 11 -36 15 -56 11 -32 -7 -39 -18 -19 -30 7 -5 4
-10 -11 -16 -18 -6 -22 -13 -17 -32 3 -14 2 -27 -3 -30 -5 -3 -7 -16 -4 -29
17 -76 25 -96 39 -101 8 -3 12 -2 9 4 -3 6 3 10 14 10 11 0 23 5 26 10 3 6 22
10 41 10 19 0 34 5 34 10 0 6 -9 10 -20 10 -11 0 -20 5 -20 10 0 6 -9 10 -21
10 -15 0 -19 4 -15 16 4 9 1 23 -6 31 -9 11 -9 16 3 24 11 7 9 9 -8 9 -31 0
-31 40 -1 59 18 11 23 11 33 -2 8 -11 20 -14 36 -10 37 9 49 23 49 54 0 16 4
29 8 29 15 0 10 34 -10 63 -11 15 -23 27 -27 27 -3 0 -6 -27 -5 -59z"/>
<path d="M7680 4115 c0 -16 27 -32 37 -22 5 6 -21 37 -31 37 -3 0 -6 -7 -6
-15z"/>
<path d="M4902 2309 c-48 -48 -50 -65 -2 -22 28 24 57 63 48 63 -2 0 -22 -19
-46 -41z"/>
</g>
</svg>
